<svg version="1.0" xmlns="http://www.w3.org/2000/svg" width="72px" height="72px" viewBox="0 0 512.000000 512.000000" preserveAspectRatio="xMidYMid meet" transform="rotate(0) scale(1, 1)">

<g transform="translate(0.000000,512.000000) scale(0.100000,-0.100000)" fill="#00ffd0" stroke="none" style="--darkreader-inline-fill: #00ccb0; --darkreader-inline-stroke: none;" data-darkreader-inline-fill="" data-darkreader-inline-stroke="">
<path d="M2318 4769 c-277 -29 -540 -105 -780 -225 -133 -67 -161 -103 -126&#xA;-167 32 -61 71 -60 196 2 1090 543 2399 40 2845 -1095 138 -350 173 -778 96&#xA;-1159 -62 -305 -216 -629 -418 -879 l-56 -69 -5 262 c-5 261 -5 263 -29 282&#xA;-33 27 -84 24 -118 -5 l-28 -24 0 -390 0 -390 24 -26 24 -26 392 0 c379 0 392&#xA;1 413 20 29 28 37 64 21 101 -22 54 -50 59 -324 59 -135 0 -245 2 -245 5 0 3&#xA;27 38 61 78 75 88 191 263 252 377 233 437 313 982 216 1475 -136 685 -584&#xA;1267 -1214 1576 -367 180 -806 260 -1197 218z"/>
<path d="M380 4243 c-62 -23 -81 -103 -35 -148 l24 -25 266 0 c146 0 265 -2&#xA;265 -5 0 -3 -27 -38 -61 -78 -201 -238 -364 -559 -443 -869 -53 -206 -69 -344&#xA;-69 -563 1 -358 70 -655 223 -970 328 -674 960 -1134 1705 -1241 160 -23 450&#xA;-23 606 -1 140 21 323 65 444 107 122 43 354 155 388 187 56 55 18 153 -59&#xA;153 -10 0 -81 -31 -158 -70 -490 -243 -1045 -282 -1567 -110 -605 198 -1101&#xA;696 -1300 1303 -219 664 -91 1379 346 1932 l60 76 5 -256 5 -257 28 -24 c39&#xA;-33 81 -31 118 5 l29 29 0 386 0 385 -24 28 -24 28 -379 2 c-208 1 -385 -1&#xA;-393 -4z"/>
</g>
</svg>