<?xml version="1.0" encoding="UTF-8"?>
<svg xmlns="http://www.w3.org/2000/svg" xmlns:xlink="http://www.w3.org/1999/xlink" width="72px" height="72px" viewBox="0 0 72 72" version="1.1">
<g id="surface1">
<path style="fill:none;stroke-width:2;stroke-linecap:round;stroke-linejoin:round;stroke:rgb(100%,100%,100%);stroke-opacity:1;stroke-miterlimit:4;" d="M 34 47 L 36 42 L 36.809028 32.267361 C 36.920139 30.583333 38.163194 29.1875 39.822917 28.881944 C 40.732639 28.607639 41.690972 29.104167 42 30 L 43 37 C 43 37 52 39 54 42 C 56 45 54 55 54 55 L 59 59 M 30 43 L 30 52.076389 C 30 54.399306 31.538194 56.440972 33.774306 57.076389 L 37 58 L 40 61 M 36 19 C 36.003472 23.572917 34.048611 27.927083 30.628472 30.958333 C 29.631944 31.850694 28.524306 32.611111 27.329861 33.21875 C 20.954861 36.503472 13.173611 35.145833 8.288194 29.899306 C 3.40625 24.649306 2.607639 16.791667 6.340278 10.670139 C 10.072917 4.548611 17.423611 1.65625 24.326389 3.59375 C 31.229167 5.534722 36 11.829861 36 19 Z M 36 19 " transform="matrix(1.125,0,0,1.125,0,0)"/>
<path style="fill:none;stroke-width:2;stroke-linecap:round;stroke-linejoin:round;stroke:rgb(100%,100%,100%);stroke-opacity:1;stroke-miterlimit:4;" d="M 32.659722 41 L 27.329861 33.21875 C 28.524306 32.611111 29.631944 31.850694 30.628472 30.958333 L 34.083333 36 M 32 19 C 32.003472 22.427083 30.538194 25.694444 27.972222 27.96875 C 27.225694 28.638889 26.392361 29.208333 25.496528 29.666667 C 20.71875 32.128472 14.881944 31.111111 11.21875 27.173611 C 7.555556 23.239583 6.954861 17.34375 9.756944 12.753472 C 12.555556 8.163194 18.069444 5.993056 23.246528 7.447917 C 28.423611 8.902778 32 13.621528 32 19 Z M 16 21 L 22 15 M 23 19 L 25 17 " transform="matrix(1.125,0,0,1.125,0,0)"/>
</g>
</svg>
