<svg version="1.0" xmlns="http://www.w3.org/2000/svg" width="72px" height="72px" viewBox="0 0 512.000000 512.000000" preserveAspectRatio="xMidYMid meet" transform="rotate(0) scale(1, 1)">

<g transform="translate(0.000000,512.000000) scale(0.100000,-0.100000)" fill="#00f7ff" stroke="none" style="--darkreader-inline-fill: #00c6cc; --darkreader-inline-stroke: none;" data-darkreader-inline-fill="" data-darkreader-inline-stroke="">
<path d="M1205 3459 c-31 -17 -805 -791 -821 -821 -17 -32 -19 -120 -3 -151&#xA;16 -31 788 -805 821 -823 34 -18 109 -18 151 0 39 16 82 61 96 99 16 41 13&#xA;103 -5 140 -9 18 -116 132 -237 255 l-222 222 1575 0 1575 0 -222 -222 c-121&#xA;-123 -228 -237 -237 -255 -18 -37 -21 -99 -5 -140 13 -34 55 -80 91 -99 35&#xA;-18 109 -18 151 0 41 18 813 792 827 829 14 40 12 113 -4 145 -18 33 -792 805&#xA;-823 821 -31 15 -119 14 -151 -3 -36 -19 -78 -65 -91 -99 -16 -41 -13 -103 5&#xA;-140 9 -18 116 -132 237 -254 l222 -223 -1575 0 -1575 0 222 223 c121 122 228&#xA;236 237 254 18 37 21 99 5 140 -13 34 -55 80 -91 99 -32 16 -124 18 -153 3z"/>
</g>
</svg>